<?xml version="1.0" encoding="utf-8"?>
<!-- Generator: Adobe Illustrator 27.5.0, SVG Export Plug-In . SVG Version: 6.00 Build 0)  -->
<svg version="1.1" xmlns="http://www.w3.org/2000/svg" xmlns:xlink="http://www.w3.org/1999/xlink" x="0px" y="0px"
	 viewBox="0 0 500 500" style="enable-background:new 0 0 500 500;" xml:space="preserve">
<g id="BACKGROUND">
	<rect style="fill:#FFFFFF;" width="500" height="500"/>
</g>
<g id="OBJECTS">
	<g>
		<g>
			<path d="M330.202,207.474c0-0.001-0.001-0.003-0.002-0.004c-0.036-0.084-0.07-0.167-0.106-0.251
				C330.131,207.304,330.167,207.389,330.202,207.474z"/>
			<g>
				<path d="M232.161,286.84c0.006,0.012,0.011,0.025,0.017,0.037c-0.014-0.035-0.029-0.068-0.04-0.092
					c0.007,0.017,0.014,0.033,0.021,0.05C232.159,286.837,232.16,286.838,232.161,286.84z"/>
				<path d="M334.887,222.531c-0.177-4.169-0.458-8.429-1.526-12.475c-2.07-6.892-6.174-13.113-11.356-18.069
					c-3.827-3.575-7.933-6.908-12.556-9.405c-3.3-1.813-6.831-3.17-10.411-4.317c-3.676-1.171-7.428-2.094-11.235-2.72
					c-2.051-2.65-4.167-5.254-6.481-7.681c-5.055-4.963-10.375-9.656-15.267-14.785c-3.325-3.451-6.551-6.993-9.793-10.521
					c-2.782-2.977-5.611-5.912-8.306-8.969c-5.393-6.075-10.548-12.359-16.065-18.324c-3.645-3.961-7.486-7.743-11.565-11.256
					c-4.656-3.843-9.442-7.53-14.366-11.024C191.316,82.74,175.97,73.53,161.444,63.11c-5.349-3.742-10.924-8.097-15.198-11.421
					c-5.31-4.128-10.674-8.229-16.499-11.612c-2.52-1.457-5.319-2.446-8.209-2.821c-0.625-0.094-1.26-0.114-1.891-0.106
					c-0.594,0.006-1.216,0.068-1.706,0.431c-0.714,0.523-1.016,1.428-1.112,2.278c-0.281,1.554,0.225,3.084,0.911,4.463
					c2.219,4.289,4.99,8.273,7.783,12.204c4.383,6.149,9.053,12.091,13.21,18.401c5.56,8.143,11.009,16.378,15.931,24.926
					c2.148,3.767,4.231,7.572,6.212,11.429c2.515,4.886,4.945,9.826,7.885,14.475c3.22,5.061,6.828,9.862,10.506,14.596
					c1.969,2.575,3.996,5.104,6.059,7.605c2.039,2.523,4.053,5.067,6.159,7.535c6.49,7.377,13.765,14.063,21.738,19.809
					c3.468,2.348,7.056,4.525,10.702,6.586c4.124,2.226,7.045,3.526,11.46,4.815c0.254,0.085,0.509,0.167,0.765,0.249
					c0.178,0.059,0.352,0.131,0.527,0.198c0.101,0.04,0.201,0.079,0.301,0.12c-1.139,1.308-2.127,2.747-3.058,4.209
					c-0.356,0.607-0.656,1.245-0.91,1.902c-0.587-1.148-1.222-2.271-1.879-3.381c-0.606-1.003-1.192-2.025-1.931-2.938
					c-1.17-1.554-2.66-2.814-4.294-3.858c-1.926-1.227-4.317-2.646-5.588-3.203c-2.509-1.077-5.178-1.724-7.778-2.542
					c-0.954-0.275-1.917-0.517-2.878-0.766c-0.2-0.042-0.402-0.126-0.606-0.137c-4.373-3.75-8.548-7.728-12.835-11.575
					c-5.077-4.599-10.402-8.911-15.629-13.335c-6.028-5.126-12.02-10.312-18.448-14.937c-5.551-3.923-11.415-7.377-17.22-10.906
					c-5.872-3.532-11.717-7.19-18.061-9.829c-1.793-0.709-3.604-1.38-5.447-1.948c-0.665-0.203-1.339-0.376-2.024-0.498
					c-0.586-0.111-1.205-0.176-1.77,0.054c-2.569,1.042-2.16,5.737-2.065,8.015c0.165,2.795,0.524,5.577,1.067,8.324
					c1.325,7.299,3.823,14.324,6.967,21.028c1.411,3.072,2.872,6.125,4.472,9.102c2.412,4.083,5.128,7.99,8.131,11.661
					c2.284,2.776,4.572,5.559,7.133,8.088c3.612,3.519,7.542,6.71,11.75,9.49c1.627,1.052,3.283,2.061,4.967,3.023
					c-0.807,0.527-1.585,1.1-2.323,1.723c-1.92,1.647-3.849,3.315-5.355,5.365c-0.689,0.958-1.217,2.017-1.74,3.072
					c-0.107,0.224-0.213,0.448-0.32,0.672c-0.03-0.004-0.059-0.008-0.088-0.012c-8.212-1.036-16.485-1.41-24.734-2.031
					c-4.957-0.405-9.913-0.889-14.886-1.051c-5.29-0.152-10.586-0.089-15.876,0.047c-7.071,0.266-14.125,0.887-21.14,1.81
					c-4.589,0.568-9.171,1.212-13.709,2.107c-1.297,0.253-2.59,0.525-3.876,0.826c-0.796,0.225-1.67,0.323-2.33,0.857
					c-1.379,1.519,0.646,2.822,2.093,3.146c3.921,1.073,7.944,1.717,11.948,2.399c4.34,0.736,8.688,1.445,13.072,1.872
					c16.878,1.711,33.821,2.702,50.754,3.694c6.235,0.355,12.47,0.729,18.705,1.078c0.342,2.95,0.713,5.766,1.719,9.096
					c1.476,4.475,4.009,8.535,6.856,12.262c1.617,2.131,3.302,4.22,5.207,6.102c2.214,2.052,4.634,3.882,7.139,5.564
					c5.956,4.042,12.565,7.045,19.485,9.01c1.608,0.459,3.228,0.902,4.883,1.152c1.592,0.266,3.208,0.318,4.817,0.407
					c5.029,0.292,9.42-0.028,13.797-0.912c0.203-0.059,0.412-0.115,0.619-0.174c0.004,1.041,0.022,2.081,0.058,3.121
					c0.197,5.635,1.36,11.239,3.591,16.424c0.774,1.893,1.751,3.772,3.291,5.156c0.444,0.388,0.906,0.756,1.383,1.102
					c-0.566,4.299-0.63,8.643-0.697,12.973c-0.08,4.229,0.315,8.483,1.593,12.53c0.544,1.861,1.192,3.698,2.068,5.431
					c0.672,1.297,1.491,2.511,2.34,3.697c1.851,2.519,6.365,8.347,10.782,9.795c-0.502,3.462-0.149,7.116,1.305,10.305
					c0.514,1.145,1.247,2.164,2.004,3.157c1.186,1.597,2.502,3.099,3.999,4.411c1.17,1.058,2.383,2.067,3.597,3.074
					c1.621,1.259,4.144,3.298,5.939,1.881c0.601-0.449,0.929-1.193,0.995-1.928c0.019-0.082,0.028-0.164,0.017-0.246
					c-0.081-1.344-1.094-2.347-1.866-3.364c-0.999-1.268-1.865-2.425-3.352-4.317c-1.498-1.826-3.577-4.967-5.159-7.771
					c-0.788-1.338-1.593-2.665-2.258-4.07c-0.513-1.083-0.434-0.937-0.901-2.174c-0.058-0.126-0.099-0.263-0.141-0.398
					c0.776-1.387,1.006-3.294,1.025-4.667c-0.123-3.595-0.737-7.166-1.513-10.673c-1.143-4.816-2.72-9.521-4.377-14.181
					c-1.01-2.724-1.907-5.494-3.13-8.134c-0.714-1.558-1.476-3.092-2.178-4.655c0.007,0.017,0.014,0.034,0.02,0.052
					c-0.013-0.031-0.026-0.063-0.039-0.094c-0.06-0.122-0.05-0.111-0.021-0.05c0-0.001-0.001-0.001-0.001-0.002
					c-0.036-0.089-0.065-0.162-0.09-0.226c1.355-2.495,1.308-6.673,1.34-9.15c-0.004-3.489-0.133-6.977-0.242-10.464
					c-0.128-3.262-0.327-6.521-0.455-9.784c-0.083-2.563-0.225-5.128-0.601-7.667c-0.456-3.074-0.842-6.245-2.326-9.025
					c-1.165-2.098-3.29-3.673-5.688-3.994c-0.122-0.017-0.244-0.033-0.367-0.049c0.111,0.015,0.222,0.03,0.333,0.045
					c-0.03-0.004-0.06-0.009-0.089-0.013c-0.195-0.035-0.782-0.1-1.008-0.121c-0.182-0.036-0.363-0.077-0.546-0.026
					c-0.264,0.019-0.489,0.127-0.666,0.286c-0.811-0.076-1.648,0.004-2.35,0.445c-1.142,0.732-2.002,1.782-2.659,2.951
					c0.057-0.154,0.07-0.33,0.016-0.515c-0.082-0.305-0.327-0.516-0.519-0.755c-0.319-0.374-0.629-0.755-0.941-1.135
					c-3.845-4.584-8.007-12.131-7.181-17.267c0.113-0.377,0.232-0.792,0.001-1.15c-0.007-0.013-0.018-0.022-0.025-0.034
					c2.661,0.212,5.137,0.453,7.141,0.693c7.305,0.949,14.448,2.8,21.617,4.448c5.461,1.24,10.983,2.209,16.39,3.683
					c3.621,0.944,7.329,1.954,11.104,1.674c0.318-0.033,0.656-0.072,1-0.121c0.397,1.443,1.023,2.948,2.246,3.874
					c0.994,0.689,2.074,1.303,3.254,1.602c1.623,0.423,3.26,0.201,5.583,0.13c1.732-0.027,2.042-0.003,3.869,0.656
					c2.673,1.034,5.658,1.853,8.5,1.049c2.524-0.775,4.192-3.279,4.426-5.844c0.346-2.314-0.281-4.694-1.542-6.645
					c-0.804-1.319-1.707-2.594-2.851-3.642c-2.116-1.917-4.704-3.388-7.467-4.129c-1.16-0.278-2.353-0.37-3.543-0.383
					c-1.449-0.031-2.91,0.093-4.309,0.485c-1.313,0.352-2.576,0.902-3.669,1.717c-1.206,0.882-1.462,0.954-2.253,1.7
					c-0.113,0.113-0.194,0.237-0.25,0.365c-0.07-0.057-0.142-0.112-0.215-0.165c-0.076-0.099-0.168-0.186-0.277-0.249
					c-7.222-3.905-13.681-9.025-20.364-13.758c-4.334-3.105-8.72-6.408-12.481-9.344c0.148-0.127,0.263-0.297,0.319-0.51
					c0.591-2.603,1.396-3.949,3.105-6.257c0.995-1.561,3.736-3.969,5.313-5.083c1.956-1.511,4.044-2.841,6.224-4.004
					c3.346-1.751,7.471-3.272,11.931-4.014c4.655-0.812,10.369-0.973,15.924-0.592c3.997,0.341,6.86,0.727,10.534,1.351
					c0.166,0.168,0.361,0.287,0.633,0.279c0.148,0.005,0.286-0.034,0.407-0.1c0.294,0.051,0.594,0.104,0.901,0.158
					c3.564,0.665,7.068,1.628,10.509,2.764c4.318,1.449,7.58,2.888,11.706,5.507c2.724,1.771,4.113,2.898,6.531,4.954
					c2.142,1.846,4.21,3.793,6.015,5.974c1.227,1.42,2.314,3.013,3.606,5.132c1.029,1.672,2.142,3.916,2.559,4.976
					c1.296,3.056,1.933,6.169,2.153,8.816c0.389,3.496,0.551,7.016,0.437,10.532c0.021,0.378-0.117,0.784,0.058,1.136
					c0.158,0.478,0.738,0.725,1.212,0.594c0.964-0.282,0.751-1.441,0.828-2.229C334.931,225.057,334.916,223.793,334.887,222.531z
					 M216.768,181.458c2.146,0.784,5.438,2.728,8.085,4.495c1.263,0.816,2.762,2.404,3.636,3.778
					c0.835,1.288,1.624,2.606,2.37,3.947c0.25,0.424,0.464,0.87,0.682,1.314c-2.362-1.897-4.692-3.835-7.075-5.707
					c-4.195-3.265-8.855-6.6-12.505-9.493C213.906,180.428,215.764,181.101,216.768,181.458z M230.956,203.03
					c-2.022-1.668-3.902-3.513-6.046-5.029c-1.403-0.952-2.938-1.697-4.524-2.293c-2.084-0.781-4.024-1.285-5.568-2.096
					c-3.933-2.199-6.99-5.636-10.659-8.863c-2.789-2.445-5.694-4.751-8.581-7.077c3.202,0.779,6.115,1.795,8.734,3.137
					c2.968,1.584,5.825,3.366,8.766,4.998c1.982,1.093,4.078,1.953,6.124,2.915c1.344,0.624,1.808,1.038,2.774,1.848
					c0.505,0.405,1.005,0.816,1.495,1.24c0.131,0.132,0.317,0.214,0.504,0.224c2.484,3.126,5.829,6.707,7.7,9.079
					c1.373,1.737,2.548,3.62,3.912,5.361C233.903,205.339,232.337,204.165,230.956,203.03z M235.14,208.216
					c-0.141-0.024-0.295-0.054-0.472-0.095c-2.756-0.631-5.592-0.975-8.26-1.94c-5.138-1.928-10.298-4.695-15.537-7.546
					c-1.858-1.033-3.707-2.104-5.601-3.079c1.875-0.056,3.754,0.051,5.627,0.145c2.189,0.171,3.467,0.254,5.363,0.626
					c0.909,0.144,1.813,0.322,2.677,0.65c0.214,0.121,0.429,0.147,0.62,0.109c0.273,0.096,0.512,0.184,0.705,0.262
					c2.281,0.91,4.094,2.128,5.586,3.437C228.805,203.43,231.821,206.031,235.14,208.216z M185.986,160.31
					c0.226,0.145,0.488,0.269,0.759,0.183c0.085-0.021,0.159-0.063,0.227-0.111c1.518,1.29,3.028,2.588,4.518,3.91
					c5.059,4.442,9.875,9.151,14.987,13.533c3.126,2.709,6.637,5.367,10.001,7.88c-0.708-0.346-1.409-0.703-2.092-1.097
					c-3.243-1.827-6.365-3.874-9.689-5.557c-2.295-1.115-4.72-1.936-7.172-2.63c-0.872-0.244-1.757-0.435-2.641-0.624
					c-0.382-0.067-0.796-0.25-1.157-0.024c-0.103,0.057-0.184,0.133-0.247,0.219c-3.381-2.69-6.83-5.291-10.414-7.707
					c-2.514-1.729-5.053-3.424-7.505-5.242c-2.357-1.763-5.309-4.202-7.97-6.484c2.654,0.139,5.307,0.295,7.962,0.407
					c1.996,0.101,4.153,0.604,6.535,1.377c0.952,0.332,1.85,0.834,3.093,1.53C185.447,160.025,185.719,160.161,185.986,160.31z
					 M137.636,171.873c-2.344-2.787-3.886-4.76-5.942-7.784c-1.693-2.447-3.279-4.971-4.581-7.65
					c-2.798-5.611-5.142-10.533-7.099-16.177c-1.588-4.626-2.703-9.409-3.436-14.243c-0.414-3.208-1.027-9.888,0.474-10.879
					c0.741-0.214,0.414-0.101,1.305,0.028c1.751,0.383,3.431,1.033,5.11,1.649c6.493,2.393,13.628,6.915,20.12,10.853
					c5.521,3.387,11.093,6.71,16.378,10.461c5.538,4,10.46,8.183,15.936,12.905c2.372,2.045,4.775,4.053,7.176,6.064
					c-1.028-0.432-2.098-0.766-3.178-1.045c-1.518-0.428-3.068-0.732-4.645-0.818c-2.018-0.131-4.037-0.256-6.055-0.391
					c-0.682-0.046-1.365-0.085-2.048-0.125c-0.347,0.006-0.727-0.122-1.051,0.036c-0.135,0.052-0.241,0.129-0.325,0.219
					c-2.238-1.966-4.469-3.943-6.913-5.651c-2.641-1.718-5.496-3.087-8.318-4.48c-3.493-1.696-7.05-3.276-10.755-4.454
					c-0.873-0.288-1.753-0.556-2.638-0.806c-0.241-0.068-0.483-0.133-0.725-0.198c-0.264-0.075-0.574,0.02-0.729,0.249
					c-0.222,0.258-0.183,0.674,0.054,0.911c0.278,0.25,0.689,0.259,1.027,0.391c0.881,0.267,1.755,0.554,2.624,0.857
					c3.806,1.302,6.655,2.541,10.332,4.332c2.956,1.471,5.963,2.899,8.705,4.747c2.96,2.105,5.774,4.777,8.893,7.402
					c3.489,2.943,7.045,5.816,10.82,8.387c2.41,1.68,4.852,3.316,7.249,5.014c-0.08-0.01-0.165-0.021-0.26-0.034
					c-2.762-0.382-5.561-0.154-8.333,0c-4.425,0.482-9.217,1.448-12.978,1.893c-2.598,0.35-4.808,0.765-6.944,0.969
					c-0.817,0.069-1.637,0.102-2.456,0.146c-0.212-0.001-0.415,0.086-0.564,0.234c-0.496,0.468-0.127,1.385,0.564,1.362
					c2.463-0.05,4.902-0.385,7.333-0.755c2.546-0.355,5.093-0.699,7.626-1.14c3.823-0.633,6.684-1.214,10.337-1.328
					c1.91-0.108,3.828-0.176,5.729,0.083c0.012,0.002,0.019,0.003,0.028,0.004c0.328,0.045,0.653,0.11,0.971,0.203
					c0.188,0.052,0.374,0.109,0.554,0.184c0.238,0.071,0.497-0.002,0.679-0.161c1.986,1.491,4.028,3.116,6.235,4.9
					c3.819,3.11,7.702,6.152,11.275,9.548c2.42,2.234,4.79,4.571,7.536,6.406c-2.268-0.289-4.528-0.427-7.126-0.437
					c-0.674,0.002-1.345,0.062-2.016,0.111c-0.331,0.018-0.694,0.023-0.935,0.286c-0.037,0.035-0.069,0.071-0.098,0.11
					c-1.162-0.511-2.349-0.966-3.572-1.334c-5.405-1.736-11.117-2.074-16.741-2.515c-1.866-0.125-3.736-0.237-5.606-0.156
					c-0.436,0.014-0.871,0.03-1.307,0.045c-0.22-0.002-0.43,0.089-0.585,0.242c-0.51,0.488-0.135,1.434,0.585,1.413
					c3.698-0.164,7.387,0.207,11.062,0.572c4.929,0.422,9.177,0.919,14.119,2.728c2.71,0.968,6.457,3.138,9.586,4.874
					c3.541,1.919,7.872,4.149,10.937,5.487c1.935,0.83,3.888,1.639,5.9,2.262c1.344,0.411,2.734,0.623,4.113,0.871
					c1.423,0.279,4.078,0.845,4.832,0.885c0.248,0.037,0.499,0.067,0.744,0.121c0.206,0.071,0.438,0.072,0.628-0.043
					c0.047-0.026,0.087-0.058,0.124-0.092c3.099,1.829,6.372,3.337,9.574,4.977c-1.28-0.493-2.579-0.937-3.903-1.311
					c-4.408-1.389-8.876-2.566-13.397-3.526c-6.869-1.47-13.677-3.218-20.588-4.492c-4.326-0.801-8.665-1.537-12.973-2.437
					c-4.044-0.851-8.057-1.85-12.062-2.866c-4.589-1.193-9.159-2.495-13.569-4.247c-3.324-1.291-7.165-3.214-10.859-5.307
					C150.931,185.538,143.996,179.707,137.636,171.873z M242.199,334.193c0.493,0.912,1.074,1.774,1.571,2.684
					c1.35,2.393,2.76,4.761,4.408,6.964c2.138,2.809,2.424,3.188,4.715,6.119c0.508,0.682,0.486,0.467,0.951,1.399
					c0.007,0.021,0.015,0.04,0.02,0.061c0.007,0.053,0.017,0.106,0.028,0.158c0.001,0.064-0.002,0.128-0.005,0.191
					c-0.012,0.049-0.024,0.091-0.034,0.124c-0.011,0.021-0.023,0.042-0.036,0.062c-0.03,0.033-0.063,0.063-0.096,0.092
					c-0.017,0.01-0.032,0.02-0.046,0.028c-0.032,0.011-0.057,0.018-0.073,0.023c-0.053,0.001-0.106-0.001-0.149-0.004
					c-0.099-0.019-0.198-0.043-0.294-0.076c-1.01-0.368-2.633-1.707-4.111-3.09c-1.103-1.002-2.201-2.013-3.246-3.075
					c-1.527-1.692-2.175-2.535-3.298-4.091c-0.562-0.802-1.047-1.66-1.441-2.557c-0.436-1.103-0.709-2.264-0.898-3.433
					c-0.2-1.527-0.183-3.076,0.004-4.603c0.018-0.136,0.025-0.197,0.035-0.255c0.137-0.03,0.268-0.07,0.394-0.116
					c0.041,0.102,0.081,0.203,0.122,0.305C241.136,332.169,241.659,333.186,242.199,334.193z M232.143,291.483
					c1.123,2.492,2.909,7.623,4.293,11.715c1.745,5.292,3.434,10.642,4.206,16.176c0.156,1.277,0.622,3.955,0.493,6.137
					c-0.004,0.113-0.03,0.344-0.045,0.483c-0.031,0.184-0.059,0.368-0.101,0.55c-0.111,0.494-0.239,0.987-0.42,1.46
					c-0.33,0.554-0.02,0.165-0.591,0.735c-0.039,0.033-0.068,0.058-0.093,0.08c-0.015,0.01-0.03,0.02-0.046,0.03
					c-0.002,0-0.003,0.001-0.005,0.001c-0.03,0.001-0.066,0.001-0.119,0.002c-0.706-0.107-1.326-0.261-2.96-1.393
					c-0.9-0.566-2.411-2.038-3.649-3.41c-2.243-2.529-3.53-4.219-5.387-7.339c-1.425-2.432-2.172-5.008-3.066-8.343
					c-1.095-4.469-0.983-8.389-0.964-14.102c0.031-2.29,0.117-4.581,0.33-6.861c0.572,0.296,1.164,0.555,1.782,0.757
					c1.079,0.33,2.229,0.439,3.354,0.44c0.597-0.048,1.106-0.232,1.546-0.517c0.016,0.035,0.035,0.068,0.051,0.103
					C231.607,290.108,231.577,290.151,232.143,291.483z M218.092,241.736c0.352-1.065,1.844-3.281,2.799-3.31
					c0.01-0.002,0.02-0.003,0.03-0.005c0.018-0.003,0.038-0.005,0.066-0.01c0.207-0.03,0.429-0.003,0.65,0.023
					c0.01,0.01,0.018,0.022,0.028,0.032c0.494,0.496,1.239,0.377,1.89,0.444c-0.041-0.001-0.041,0.002,0.054,0.008
					c1.302,0.263,1.072,0.232,1.978,0.674c0.872,0.564,0.391,0.192,1.066,0.802c1.601,1.585,2.24,4.007,2.795,7.228
					c0.909,4.803,0.886,10.815,1.218,16.548c0.189,3.509,0.226,7.025,0.375,10.535c0.05,1.847,0.078,3.697,0.03,5.544
					c-0.017,0.775-0.109,1.546-0.191,2.316c0.013-0.099,0.027-0.199,0.04-0.298c-0.245,2.605-1.079,4.091-1.66,4.15
					c-0.628,0.072-2.18,0.028-3.72-0.679c-1.477-0.65-4.005-2.407-4.882-4.299c-1.027-1.777-1.531-3.435-2.347-5.883
					c-1.354-4.309-1.854-7.401-2.112-11.519c-0.191-3.386-0.182-6.78-0.102-10.169C216.173,249.493,216.702,244.833,218.092,241.736
					z M215.438,240.432c0.417,0.261,0.925,0.104,1.177-0.242c-0.263,0.49-0.494,0.999-0.694,1.513
					c-0.721,1.592-1.142,3.277-1.375,5.006c-0.228,1.603-0.452,3.209-0.541,4.826c-0.116,2.243-0.201,4.489-0.23,6.735
					c-0.51,0.173-1.049,0.263-1.572,0.39c-2.933,0.528-7.555,0.599-11.402,0.424c-1.613-0.082-4.669-0.273-5.147-0.367
					c-2.109-0.302-4.159-0.908-6.194-1.522c-5.264-1.667-8.912-3.116-13.791-5.893c-4.332-2.534-7.547-4.723-10.893-7.738
					c-1.691-1.646-3.224-3.445-4.677-5.303c-0.969-1.192-2.929-3.881-4.194-6.044c-1.239-2.255-2.105-3.89-2.749-5.791
					c-0.889-2.593-1.362-5.309-1.781-8.012c-0.037-0.207-0.055-0.325-0.066-0.409c6.418,0.352,12.837,0.672,19.26,0.904
					c5.39,0.128,10.775-0.139,16.161-0.316c5.239,2.874,10.016,6.259,14.105,9.706c2.017,1.754,3.953,3.601,5.991,5.332
					C209.653,235.92,212.805,238.535,215.438,240.432z M208.39,230.436c0.597,1.246,1.265,2.457,2.005,3.622
					c-0.841-0.725-1.68-1.453-2.509-2.191c-2.594-2.281-5.037-4.739-7.783-6.842c-2.598-2.04-5.279-3.975-8.095-5.705
					c-0.449-0.281-0.899-0.559-1.351-0.834c1.12-0.022,2.241-0.036,3.361-0.035c3.768,0.032,8.265,0.256,12.455,0.564
					c-0.341,0.419-0.368,1.016-0.448,1.532c-0.118,1.193-0.013,2.385,0.195,3.562C206.588,226.318,207.427,228.423,208.39,230.436z
					 M269.423,221.59c0.378-0.323,0.733-0.672,1.125-0.979c1.422-1.029,1.972-1.345,3.352-1.739c1.571-0.42,1.726-0.414,3.405-0.471
					c2.063,0.014,2.662-0.028,4.612,0.583c1.416,0.463,2.96,1.327,4.666,2.543c0.567,0.473,1.109,0.977,1.615,1.516
					c0.725,0.842,0.57,0.694,1.243,1.653c1.105,1.759,1.549,2.401,1.796,4.392c0.236,2.249-0.639,5.073-3.02,5.786
					c-0.744,0.207-1.127,0.208-2.363,0.115c-0.933-0.087-1.187-0.09-2.474-0.531c-1.006-0.362-1.407-0.536-2.12-0.838
					c-1.247-0.549-2.575-0.948-3.947-0.957c-1.476-0.023-2.947,0.157-4.423,0.127c-0.244,0.001-0.488-0.022-0.73-0.005
					c0.081-0.018-0.098-0.017-0.28-0.031c-0.135-0.023-0.399-0.068-0.532-0.098c-1.248-0.34-1.035-0.345-2.247-0.987
					c-0.116-0.07-0.231-0.142-0.342-0.219c-0.058-0.052-0.137-0.126-0.197-0.193c-0.022-0.028-0.038-0.05-0.05-0.065
					c-0.065-0.088-0.129-0.177-0.19-0.269c-0.562-0.935-0.505-0.851-0.834-1.925c1.111-0.422,2.034-1.125,2.323-2.362
					c0.079-0.448,0.074-0.904-0.004-1.347c0.074-0.138,0.117-0.3,0.114-0.483c0.002-0.874-0.38-1.723-0.877-2.428
					c-0.084-0.145-0.195-0.251-0.318-0.324C269.007,221.982,269.211,221.779,269.423,221.59z M266.492,224.546
					c0.116,0.004,0.223-0.02,0.323-0.072c0.007-0.002,0.013-0.007,0.019-0.009c0.824,0.731,0.85,0.935,0.867,1.751
					c-0.008,0.038-0.019,0.075-0.029,0.112c-0.555,0.93-2.961,1.373-5.46,1.317c-2.483-0.106-4.878-0.735-7.801-1.512
					c-5.369-1.515-10.85-2.56-16.286-3.792c-6.795-1.59-13.548-3.425-20.458-4.46c-7.04-1.019-14.16-1.434-21.263-1.72
					c-5.486-0.078-10.969,0.2-16.45,0.402c-5.279,0.239-10.563,0.129-15.839-0.15c-14.513-0.631-29.013-1.517-43.519-2.284
					c-9.298-0.438-18.584-1.085-27.868-1.752c-6.112-0.472-12.229-0.95-18.311-1.73c-4.053-0.615-11.252-1.699-16.217-2.753
					c-1.409-0.315-3.064-0.665-3.871-1.06c1.082-0.329,2.974-0.655,4.26-0.925c5.503-1.048,9.754-1.603,15.14-2.268
					c3.98-0.49,7.969-0.908,11.969-1.196c4.947-0.35,9.905-0.537,14.865-0.539c4.3-0.017,8.605-0.015,12.896,0.283
					c4.574,0.287,9.135,0.756,13.705,1.094c5.628,0.375,11.258,0.727,16.872,1.288c5.957,0.577,10.481,1.316,16.315,2.073
					c8.493,1.033,16.467,2.298,25.382,3.584c7.938,1.192,15.871,2.427,23.744,4c6.992,1.27,13.957,2.667,20.895,4.202
					c9.987,2.126,19.957,4.455,30.121,5.568c1.442,0.16,2.885,0.301,4.331,0.417C265.383,224.46,265.938,224.503,266.492,224.546z
					 M263.708,220.557c0.166,0.093,0.331,0.185,0.497,0.277c-0.214-0.051-0.428-0.104-0.642-0.155
					c-0.005-0.001-0.011-0.003-0.016-0.004c0.002-0.079-0.009-0.157-0.034-0.232C263.578,220.481,263.642,220.521,263.708,220.557z
					 M230.915,216.536c-6.631-1.489-13.278-2.9-19.966-4.113c-4.81-0.919-9.616-1.869-14.458-2.608
					c-8.626-1.385-17.279-2.585-25.92-3.872c-6.934-0.905-12.92-1.69-19.426-2.554c0.386-0.788,0.791-1.566,1.299-2.283
					c0.805-1.145,2.297-2.67,3.846-4.007c1.256-1.104,2.753-2.465,3.535-3.008c0.352-0.257,0.708-0.507,1.073-0.745
					c4.102,2.228,8.364,4.158,12.777,5.686c4.759,1.599,9.622,2.862,14.495,4.056c6.244,1.584,12.575,2.778,18.917,3.892
					c5.998,1.062,11.925,2.463,17.859,3.827c4.256,0.947,8.538,1.8,12.735,2.992c4.058,1.187,8.238,2.322,11.443,3.858
					c2.077,0.927,4.021,2.131,6.133,2.98c1.806,0.705,3.727,1.027,5.615,1.432c0.765,0.153,1.527,0.323,2.286,0.502
					C252.455,221.481,241.843,218.946,230.915,216.536z M252.882,217.28c1.907,0.773,3.832,1.505,5.737,2.283
					c-1.644-0.398-3.171-0.866-4.4-1.575C253.775,217.748,253.33,217.512,252.882,217.28z M239.998,204.038
					c6.05,4.479,12.151,8.897,18.356,13.16c1.105,0.747,2.221,1.482,3.357,2.183c-3.665-1.638-7.325-3.051-10.59-4.523
					c-1.902-0.872-3.749-1.854-5.605-2.816c-0.979-0.506-1.967-0.994-2.949-1.493c-0.128-0.314-0.503-0.446-0.768-0.694
					c-0.169-0.142-0.646-0.466-1.336-1.084c-1.258-1.05-2.514-2.122-3.547-3.403c-1.229-1.616-3.413-5.017-5.313-7.116
					c-0.704-0.797-1.413-1.59-2.121-2.385C232.935,198.641,236.606,201.536,239.998,204.038z M279.051,174.333
					c-0.237-0.343-0.646-0.579-0.918-0.891c-0.824-0.802-1.636-1.617-2.458-2.42c-2.368-2.369-4.621-4.85-6.977-7.232
					c-4.548-4.799-9.472-9.228-13.937-14.107c-2.049-2.265-3.99-4.624-5.988-6.933c-2.747-3.149-5.53-6.268-8.261-9.432
					c-3.482-4.039-6.844-8.186-10.622-11.959c-2.429-2.508-5.013-4.853-7.634-7.158c-2.644-2.356-5.291-4.708-7.965-7.028
					c-5.148-4.401-10.122-9.015-15.444-13.207c-4.869-3.751-11.82-9.026-17.752-12.727c-3.011-1.915-5.99-3.878-9.021-5.762
					c-0.303-0.191-0.606-0.383-0.91-0.575c-0.139-0.081-0.306-0.103-0.461-0.06c-0.486,0.125-0.599,0.847-0.143,1.093
					c4.921,3.212,9.793,6.5,14.638,9.826c4.501,3.245,8.512,6.347,12.24,9.243c3.774,2.923,7.299,6.149,10.918,9.259
					c4.709,4.107,9.443,8.183,14.1,12.349c4.862,4.309,9.305,9.072,13.461,14.06c0.462,0.554,0.932,1.101,1.398,1.652
					c-1.579-0.813-3.218-1.507-4.807-2.303c-1.634-0.791-3.317-1.482-4.908-2.361c-2.642-1.393-5.095-3.114-7.459-4.933
					c-3.385-2.481-7.913-6.993-12.002-9.991c-1.628-1.214-3.278-2.404-5.048-3.406c-0.512-0.295-1.032-0.576-1.547-0.865
					c-0.186-0.109-0.408-0.136-0.615-0.08c-0.656,0.164-0.796,1.129-0.191,1.458c6.702,3.58,11.247,8.554,17.089,13.528
					c2.868,2.315,5.82,4.57,9.124,6.232c2.957,1.477,6.747,2.993,9.087,4.026c2.078,0.956,4.097,2.313,4.951,3.118
					c0.159,0.162,0.338,0.302,0.51,0.449c1.842,2.114,3.696,4.217,5.544,6.326c2.325,2.667,4.55,5.422,6.951,8.023
					c3.969,4.31,8.321,8.242,12.401,12.443c2.79,2.791,5.462,5.698,8.27,8.471c0.574,0.546,1.143,1.096,1.715,1.644
					c-3.344-0.238-6.77-0.279-10.383-0.002c-0.389,0.026-0.777,0.058-1.166,0.092c-0.581-0.687-1.156-1.379-1.754-2.052
					c-1.496-1.634-2.969-3.291-4.508-4.885c-2.099-2.064-3.883-4.411-5.864-6.583c-3.79-4.119-7.738-8.085-11.757-11.98
					c-2.632-2.576-5.434-4.965-8.208-7.383c-2.287-1.998-4.478-4.102-6.717-6.153c-4.193-3.84-8.263-7.809-12.367-11.744
					c-0.035-0.073-0.081-0.146-0.146-0.216c-0.152-0.156-0.319-0.314-0.514-0.416c-1.085-1.038-2.172-2.075-3.265-3.104
					c-4.87-4.445-9.884-8.737-14.999-12.899c-5.09-4.131-10.529-7.799-15.825-11.654c-4.887-3.6-9.194-7.154-14.395-11.641
					c-4.502-3.982-9.047-7.919-13.433-12.03c-2.638-2.516-5.171-5.14-7.877-7.585c-0.29-0.304-0.825-0.307-1.116,0
					c-0.3,0.295-0.305,0.822,0,1.115c2.97,2.718,5.723,5.658,8.654,8.415c6.689,6.156,13.453,12.242,20.468,18.026
					c5.8,4.753,12.032,8.927,18.061,13.375c5.748,4.24,12.013,9.58,17.918,14.696c0.023,0.021,0.046,0.042,0.07,0.063
					c-0.399-0.196-0.799-0.389-1.201-0.577c-1.132-0.57-2.255-1.176-3.474-1.541c-2.041-0.659-4.143-1.076-6.243-1.497
					c-1.8-0.39-3.584-0.847-5.379-1.261c-1.616-0.364-3.244-0.685-4.829-1.174c-2.332-0.73-4.603-1.636-6.912-2.434
					c-2.741-0.903-4.311-1.646-6.933-2.935c-0.885-0.426-1.774-0.846-2.661-1.268c-0.194-0.113-0.426-0.142-0.642-0.084
					c-0.685,0.169-0.832,1.181-0.199,1.523c2.816,1.322,5.517,2.903,8.438,3.989c3.377,1.195,6.674,2.659,10.15,3.548
					c2.806,0.602,5.585,1.323,8.4,1.882c2.607,0.499,5.274,0.854,7.764,1.81c1.198,0.547,4.226,1.881,6.025,2.923
					c0.579,0.322,1.155,0.648,1.712,1.006c0.228,0.142,0.44,0.308,0.671,0.441c1.526,1.465,3.04,2.942,4.575,4.396
					c4.232,4.036,8.493,8.041,12.778,12.022c3.153,2.913,6.467,5.648,9.548,8.64c4.314,4.203,8.528,8.507,12.622,12.925
					c1.721,1.83,3.271,3.814,5.035,5.606c1.934,1.923,3.787,3.924,5.633,5.93c0.282,0.315,0.557,0.638,0.833,0.958
					c-0.547,0.067-1.093,0.145-1.638,0.23c-0.33-0.29-0.768-0.474-1.119-0.736c-0.887-0.573-1.767-1.157-2.631-1.764
					c-2.475-1.947-6.093-4.956-9.088-7.315c-2.125-1.73-4.432-3.214-6.651-4.817c-2.208-1.557-4.334-3.23-6.6-4.703
					c-3.293-2.13-6.815-3.911-9.93-6.31c-2.4-1.785-4.866-3.839-7.423-6.208c-0.385-0.367-0.773-0.731-1.165-1.092
					c-0.188-0.271-0.39-0.536-0.541-0.818c-2.046-3.455-5.077-6.248-8.389-8.473c-1.762-1.186-3.667-2.132-5.587-3.029
					c-2.403-1.219-4.839-2.367-7.297-3.472c-2.497-1.134-5.005-2.247-7.443-3.506c-0.857-0.479-1.626,0.772-0.766,1.311
					c5.112,2.6,10.425,4.784,15.523,7.414c3.473,1.565,6.858,3.892,9.366,6.394c-1.456-1.012-2.983-1.918-4.606-2.663
					c-3.859-1.774-7.923-3.164-12.098-3.963c-3.087-0.494-6.221-0.57-9.318-0.991c-0.787-0.09-1.573-0.188-2.36-0.281
					c-0.103-0.004-0.199,0.018-0.288,0.064c-0.728,0.294-0.531,1.43,0.288,1.43c2.038,0.265,4.076,0.54,6.121,0.745
					c2.199,0.229,3.336,0.277,5.307,0.641c2.271,0.459,4.484,1.165,6.672,1.918c3.214,1.124,5.765,2.248,8.872,4.255
					c1.977,1.297,3.711,2.821,5.58,4.527c0.09,0.143,0.202,0.262,0.36,0.33c0.473,0.433,0.952,0.874,1.451,1.329
					c2.352,2.083,4.804,4.05,7.353,5.887c3.108,2.271,6.582,3.969,9.793,6.083c2.217,1.449,4.308,3.079,6.473,4.603
					c2.184,1.567,4.535,3.106,6.202,4.472c3.143,2.46,6.184,5.053,9.35,7.48c0.823,0.563,1.663,1.103,2.508,1.632
					c-2.549,0.516-5.051,1.249-7.461,2.252c-0.328,0.128-0.653,0.263-0.977,0.401c-0.77-0.614-1.49-1.287-2.176-1.993
					c-1.512-1.556-2.851-3.269-4.362-4.824c-1.876-1.93-3.932-3.688-6.153-5.21c-1.606-1.031-3.38-1.755-5.148-2.456
					c-2.73-1.154-5.592-1.927-8.48-2.57c-3.987-0.949-8.03-1.724-11.911-3.062c-2.094-0.704-4.795-1.688-6.197-2.353
					c-0.588-0.288-1.17-0.589-1.748-0.898c-0.468-0.192-0.899-0.655-1.433-0.528c-0.628,0.156-0.764,1.084-0.183,1.398
					c2.209,1.288,4.548,2.32,6.946,3.203c2.365,0.89,4.755,1.723,7.214,2.317c3.904,1.012,7.858,1.84,11.735,2.954
					c3.335,1.139,5.042,1.781,7.592,3.097c2.175,1.295,3.236,2.244,5.098,3.824c1.444,1.261,2.744,2.667,4.044,4.072
					c-3.287-1.986-6.953-3.009-10.842-3.469c-1.716-0.248-3.452-0.268-5.183-0.289c-2.22-0.067-4.437,0.015-6.655,0.077
					c-0.764,0.001-1.529-0.016-2.293-0.044c-0.431,0.022-0.898-0.118-1.308,0.034c-0.783,0.301-0.545,1.519,0.304,1.51
					c2.044,0.132,4.089,0.154,6.135,0.083c2.412,0.034,4.828,0.008,7.238,0.127c4.187,0.338,8.795,1.178,12.533,3.644
					c1.059,0.664,1.991,1.515,3.064,2.154c0.068,0.032,0.135,0.072,0.201,0.113c-2.525,1.256-4.911,2.79-7.133,4.527
					c-1.103,0.834-2.182,1.702-3.198,2.638c-0.006-0.002-0.012-0.004-0.018-0.006c-0.112-0.05-0.414-0.183-0.539-0.24
					c-0.432-0.186-0.867-0.369-1.31-0.526c-2.162-0.725-2.96-0.959-4.677-1.74c-5.715-2.473-11.021-5.756-16.243-9.124
					c-7.879-5.378-15.501-12.389-22.372-20.096c-1.942-2.269-3.809-4.6-5.681-6.927c-2.063-2.542-4.155-5.061-6.137-7.667
					c-3.331-4.26-7.354-9.58-10.741-14.883c-2.916-4.582-5.335-9.448-7.833-14.264c-2.075-4.012-4.259-7.967-6.514-11.88
					c-5.089-8.743-10.721-17.159-16.53-25.436c-4.967-7.33-10.664-14.129-15.706-21.406c-1.583-2.354-2.537-3.769-4.003-6.219
					c-0.979-1.63-1.688-3.239-1.754-4.029c-0.028-0.229-0.027-0.461-0.008-0.691c0.08-0.796,0.011-0.46,0.232-1.258
					c0.023-0.045,0.046-0.09,0.073-0.133c0.023-0.044,0.05-0.087,0.078-0.128c0.025-0.025,0.051-0.051,0.076-0.077
					c0.025-0.016,0.051-0.032,0.077-0.049c0.012-0.005,0.023-0.009,0.035-0.014c0.064-0.005,0.128-0.007,0.193-0.007
					c1.377,0.038,1.836,0.085,3.382,0.47c2.54,0.574,4.036,1.186,5.936,2.257c9.048,5.311,15.963,11.378,24.203,17.638
					c8.534,6.401,17.356,12.407,26.282,18.246c13.781,9.093,27.63,17.683,39.802,27.924c11.635,9.929,20.793,22.282,31.169,33.436
					c4.609,4.825,9.048,9.808,13.679,14.613c3.669,3.828,7.549,7.443,11.428,11.057c1.687,1.58,3.422,3.109,5.042,4.759
					c1.773,1.857,3.447,3.809,5.057,5.808C283.154,174.816,281.113,174.543,279.051,174.333z"/>
			</g>
		</g>
		<g>
			<g>
				<g>
					<path d="M432.04,333.265c0.023,0.009,0.045,0.02,0.067,0.029c0.071,0.031,0.143,0.059,0.214,0.09
						C432.227,333.344,432.133,333.305,432.04,333.265z"/>
					<path d="M461.334,323.417c-0.15-1.359-0.944-2.576-1.739-3.655c-1.673-2.044-3.871-3.555-6.013-5.064
						c-2.608-1.799-5.258-3.54-7.779-5.462c-3.432-2.55-7.081-4.806-10.762-6.976c-2.297-1.266-4.733-2.253-7.048-3.483
						c-2.662-1.381-5.282-2.843-7.95-4.212c-2.895-1.402-5.797-2.791-8.679-4.22c-1.156-0.593-2.328-1.167-3.419-1.874
						c-0.482-0.33-0.859-0.604-1.196-0.851c-0.052-0.573-0.367-1.158-0.768-1.582c-0.494-0.453-1.115-0.729-1.702-1.039
						c-1.804-0.877-3.818-1.171-5.791-1.407c-2.359-0.284-4.731-0.457-7.105-0.544c-2.766,0.02-5.695-0.472-8.338,0.496
						c0.26-0.682,0.505-1.369,0.725-2.066c1.095-3.55,1.707-7.232,2.122-10.918c0.277-2.708,0.237-5.432,0.118-8.147
						c-0.297-7.321-1.566-14.817-5.257-21.241c-1.361-2.423-3.076-4.644-4.987-6.657c-1.587-1.482-3.242-2.904-5.013-4.161
						c-5.122-3.505-11.113-5.619-17.245-6.462c-3.722-0.549-7.54-0.43-11.223,0.336c-1.424,0.304-2.801,0.784-4.168,1.281
						c-1.338,0.473-2.162,0.765-3.08,1.1c-0.122-0.016-0.254-0.009-0.394,0.031c-3.305,0.722-6.074,2.816-8.854,4.636
						c-2.92,2.027-5.45,4.536-7.821,7.17c-1.574,1.753-3.05,3.597-4.341,5.57c-1.169,1.86-2.17,3.823-3.065,5.828
						c-1.242,2.909-2.456,5.834-3.496,8.822c-1.018,3.013-1.809,6.097-2.499,9.2c-0.241,1.144-0.483,2.289-0.707,3.437
						c-1.377-1.049-2.788-1.13-4.413-0.282c-1.882,0.944-3.437,2.104-4.547,3.307c-0.898,0.652-1.76,1.355-2.592,2.087
						c-2.13,1.779-4.019,3.85-5.443,6.239c-0.832,1.39-1.548,2.837-2.172,4.325c-0.172-0.082-0.369-0.109-0.56-0.05
						c-0.145,0.025,0.167-0.021,0.154-0.02c-0.965,0.206-1.034,0.266-1.649,0.312c-0.591,0.019-1.18,0.103-1.772,0.071
						c-1.093-0.1-2.183-0.242-3.276-0.351c-3.632-0.426-4.883-0.639-8.894-1.213c-1.935-0.301-3.888-0.493-5.812-0.867
						c-3.527-0.711-6.959-1.836-10.36-2.994c-3.846-1.396-7.825-3.444-11.867-6.141c-1.878-1.367-3.821-2.842-5.903-4.965
						c-0.357-0.394-0.692-0.808-1.04-1.21c-0.096-0.104-0.211-0.177-0.343-0.22c-1.031-0.474-1.991,0.908-1.164,1.727
						c1.233,1.634,2.737,3.021,4.3,4.333c1.838,1.611,3.829,3.03,5.917,4.297c5.137,3.163,9.262,4.843,15.148,6.459
						c1.635,0.468,3.287,0.881,4.963,1.174c1.661,0.29,4.558,0.611,5.154,0.701c3.555,0.408,7.103,0.94,10.682,1.095
						c0.86,0.028,1.722,0.077,2.582,0.034c0.258-0.019,0.514-0.058,0.77-0.095c0.083-0.009,0.055-0.008,0-0.003
						c0.003,0,0.006-0.001,0.009-0.001c0.106-0.018,0.351-0.049,0.442-0.061c0.024-0.003,0.047-0.006,0.071-0.009
						c0.663-0.081,1.045-0.071,1.784-0.303c-1.089,2.971-1.847,6.071-2.421,9.174c-0.466,2.703-0.878,5.422-0.956,8.167
						c-0.044,1.21,0.01,2.496,0.305,3.668c-1.989,1.068-3.575,2.712-5.146,4.305c-2.417,2.36-4.395,5.159-5.561,8.344
						c-0.446,1.125-1.405,3.448-1.188,5.059c-2.691,4.277-2.073,8.754-2.174,13.883c-0.073,2.25-0.142,1.697-0.364,3.592
						c-0.115,0.902-0.221,1.888,0.198,2.728c0.508,0.912,1.465,1.727,2.571,1.469c1.65-0.299,2.339-2.095,2.457-3.595
						c0.145-1.269,0.188-2.547,0.211-3.823c0.05-3.685,0.198-7.373-0.029-11.055c-0.015-0.596-0.002-1.192,0.025-1.787
						c2.851-1.095,6.26-5.607,7.982-7.32c1.982-2.184,4.225-3.518,5.95-4.904c0.485-0.384,0.928-0.817,1.357-1.262
						c0.255-0.299,0.594-0.56,0.751-0.923c0.04-0.08,0.064-0.162,0.077-0.244c0.955-0.026,1.902-0.203,2.792-0.568
						c3.037-1.112,4.788-4.025,6.53-6.568c3.245-4.59,4.933-9.946,6.134-15.39c0.539,3.148,1.468,6.216,3.023,9.395
						c2.663,5.524,6.533,10.504,11.346,14.317c2.727,2.096,5.801,3.697,8.967,5.017c1.032,0.474,1.65,0.663,3.237,1.32
						c0.244,0.095,0.486,0.193,0.729,0.29c-0.086-0.04-0.153-0.076-0.044-0.021c0.019,0.012,0.041,0.018,0.06,0.028
						c0.042,0.017,0.084,0.033,0.125,0.05c0.063,0.024,0.128,0.042,0.194,0.054c1.969,4.113,4.841,7.571,5.809,11.334
						c0.806,2.699,0.775,4.238,0.721,7.254c-0.03,1.805-0.134,3.832,1.145,5.274c1.79,1.905,5.032,1.376,7.2,0.446
						c2.173-0.851,4.317-1.922,5.915-3.665c1.469-1.659,2.219-3.818,2.636-5.963c0.276-1.407,0.438-2.884,0.059-4.286
						c-0.089-0.339-0.211-0.664-0.359-0.976c0.182-0.094,0.352-0.219,0.515-0.342c0.402-0.302,0.786-0.626,1.15-0.972
						c1.391-1.314,2.766-2.644,4.061-4.053c1.343-1.4,2.766-2.721,4.042-4.185c1.49-1.721,2.939-3.488,4.279-5.332
						c-0.275,1.526-0.727,3.02-0.867,4.569c-0.078,0.625-0.075,1.257,0.011,1.881c0.061,0.572,0.185,1.166,0.521,1.639
						c-0.842,5.566-1.271,11.253-1.318,17.534c-0.046,5.31,0.372,10.62,0.136,15.928c-0.303,5.703-0.669,11.41-1.353,17.082
						c-0.345,2.742-0.839,6.479-1.284,9.425c-0.535,3.11-1.008,4.991-1.352,7.816c-0.457,2.277,0.896,3.761,3.141,2.489
						c1.139-0.689,1.845-1.89,2.47-3.029c1.623-3.315,2.116-7.023,2.596-10.644c0.428-4.124,0.738-6.12,1.195-9.606
						c0.956-7.016,1.264-14.104,1.227-21.181c-0.028-3.143,0.043-6.292-0.223-9.427c-0.185-2.847-0.67-5.659-1.054-8.483
						c-0.005-0.045-0.147-1.103-0.18-1.364c-0.204-1.552-0.379-3.108-0.636-4.653c-0.095-0.614-0.204-1.225-0.323-1.835
						c0.461-0.551,0.687-1.259,0.926-1.93c0.595-1.755,0.681-3.633,0.757-5.47c0.056-2.58-0.128-5.16-0.304-7.734
						c0.734-1.541,1.399-3.114,1.985-4.714c0.982-2.751,1.771-5.567,2.746-8.319c0.065-0.168,0.128-0.331,0.19-0.49
						c0.399,0.552,0.853,1.067,1.301,1.577c0.783,0.877,1.643,1.686,2.575,2.403c0.002,0.002,0.003,0.002,0.004,0.004
						c-0.061-0.047-0.15-0.117-0.185-0.143c0.074,0.06,0.15,0.117,0.226,0.175c0.021,0.017,0.021,0.016,0.008,0.006
						c0.769,0.587,1.61,1.084,2.514,1.432c0.4,0.124,0.813,0.24,1.231,0.322c1.794,2.442,3.687,4.865,5.912,7.704
						c1.64,2.104,3.505,4.014,5.411,5.876c1.965,1.936,3.911,3.903,6.059,5.64c1.539,1.204,3.185,2.264,4.831,3.315
						c1.175,0.735,2.358,1.457,3.571,2.128c0.22,0.124,0.443,0.244,0.665,0.365c0.049,0.173,0.143,0.342,0.293,0.493
						c1.198,1.399,2.724,3.019,3.587,3.439c1.216,0.786,2.634,1.118,4.032,1.419c1.711,0.383,3.435,0.713,5.138,1.133
						c2.812,0.663,5.552,1.589,8.23,2.669c1.552,0.667,2.702,1.099,4.701,2.273c0.765,0.385,1.405,1.107,2.277,1.223
						c1.786-0.046,1.472-1.924,0.844-3.054c-0.786-1.466-1.964-2.742-3.348-3.664c-2.222-1.201-4.706-1.81-7.155-2.358
						c-4.453-1.066-9.966-2.078-13.409-3.744c-0.938-0.446-1.854-0.934-2.771-1.419c-0.325-0.139-0.632-0.356-0.965-0.475
						c-3.153-4.046-6.731-8.681-10.254-13.125c-1.884-2.288-3.74-4.606-5.758-6.777c-1.345-1.359-2.816-2.587-4.285-3.809
						c-0.726-0.582-1.433-1.187-2.142-1.79c-0.244-0.183-0.446-0.438-0.704-0.6c-0.001-0.109-0.004-0.217-0.008-0.325
						c-0.03-0.568-0.048-1.156-0.273-1.687c-0.851-2.209-2.676-3.846-4.426-5.362c-0.462-0.4-0.901-0.765-1.318-1.101
						c1.471,0.115,2.942,0.225,4.415,0.322c2.15,0.093,4.304,0.056,6.454-0.019c2.044-0.072,4.077-0.32,6.12-0.421
						c1.424-0.105,2.352-0.207,3.185-0.356c0.321-0.066,0.648-0.129,0.966-0.218c0.038,0.028,0.076,0.056,0.119,0.08
						c3.429,2.515,7.316,5.646,12.448,9.105c5.502,3.412,11.171,6.563,16.893,9.591c1.876,0.999,3.72,2.065,5.495,3.234
						c1.534,1.036,3.143,2.302,3.972,2.931c2.588,2.059,5.332,3.907,8.022,5.828c2.392,1.744,3.615,2.858,6.09,4.589
						C459.559,326.084,461.498,325.797,461.334,323.417z M269.881,341.007c-0.09,3.116-0.112,5.82-0.956,6.135
						c-0.021,0.002-0.043,0.004-0.064,0.004c-0.031-0.029-0.067-0.065-0.105-0.106c-0.055-0.09-0.107-0.182-0.154-0.276
						c-0.009-0.029-0.016-0.059-0.023-0.089c-0.002-0.042-0.004-0.09-0.005-0.148c-0.001-0.192,0.01-0.383,0.029-0.573
						c0.001-0.008,0.002-0.014,0.003-0.023c0.025-0.162,0.04-0.277,0.041-0.292c0.003-0.024,0.007-0.048,0.009-0.071
						c0.158-1.077,0.386-2.145,0.456-3.233c0.089-2.299-0.031-4.6-0.007-6.9c0.075-2.133,0.106-2.864,0.585-4.774
						c0.154-0.489,0.23-0.739,0.29-0.91c0,1.312,0.105,2.624,0.095,3.937C270.077,336.128,269.949,338.568,269.881,341.007z
						 M285.372,314.457c-1.571,1.624-4.028,2.758-6.061,4.754c-1.967,1.891-3.654,4.056-5.674,5.895
						c-1.03,0.896-1.692,1.448-2.443,1.761c-0.011-0.002-0.023-0.003-0.034-0.005c0.001-0.007,0.002-0.015,0.003-0.022
						c0.005-0.042,0.01-0.084,0.014-0.127c0.004-0.03,0.009-0.064,0.014-0.1c0.16-0.876,0.461-1.718,0.776-2.549
						c0.57-1.443,0.633-1.687,1.428-3.219c0.72-1.368,1.632-2.623,2.121-3.24c1.642-1.885,3.331-3.767,5.282-5.34
						c0.071-0.051,0.201-0.146,0.289-0.205c0.21-0.164,0.457-0.287,0.696-0.417c0.567,0.858,1.391,1.535,2.576,1.896
						c0.48,0.171,0.976,0.309,1.48,0.412C285.688,314.123,285.534,314.294,285.372,314.457z M303.17,275.502
						c-0.238,2.176-0.312,4.369-0.32,6.557c0,0.503,0.004,1,0.011,1.492c-0.143,0.747-0.288,1.482-0.426,2.179
						c-0.74,3.716-1.526,7.431-2.691,11.041c-0.922,3.005-1.821,4.981-3.676,7.952c-1.014,1.615-2.257,3.457-2.935,4.284
						c-1.076,1.208-1.168,1.382-2.391,2.13c-0.82,0.397-0.866,0.433-2.03,0.684c-0.543,0.044-1.089,0.03-1.63-0.027
						c-0.111-0.014-0.222-0.027-0.332-0.041c-0.042-0.009-0.143-0.028-0.275-0.05c-0.249-0.003-1.285-0.393-1.526-0.482
						c-0.022-0.01-0.045-0.019-0.066-0.029c-0.694-0.371-0.275-0.048-0.91-0.698c-1.752-2.1-0.209-10.809,0.61-14.963
						c0.605-2.832,1.367-5.642,2.48-8.319c-0.003,0.003-0.006,0.009-0.009,0.013c0.563-1.376,1.793-3.925,3.122-5.692
						c0.971-1.381,3.186-3.523,5.008-5.03c0.218-0.008,0.436-0.091,0.623-0.266c0.102-0.068,0.199-0.143,0.299-0.216
						c1.177-0.848,1.809-1.32,3.779-2.499c0.007-0.004,0.013-0.007,0.02-0.011c0.18-0.076,0.354-0.16,0.504-0.275
						c0.242-0.13,0.352-0.182,0.499-0.247c0.207-0.077,0.421-0.135,0.638-0.176c0.039-0.001,0.083-0.002,0.128-0.001
						c0.079,0.02,0.202,0.053,0.305,0.092c0.039,0.018,0.079,0.034,0.118,0.051c0.061,0.029,0.123,0.057,0.183,0.089
						c0.753,0.47,0.359,0.16,1.052,0.842c0.013,0.016,0.032,0.039,0.056,0.069C303.31,274.469,303.234,274.985,303.17,275.502z
						 M430.544,332.482c2.412,0.658,4.356,1.102,6.066,2.197c0.121,0.04,1.073,0.927,1.631,1.621
						c0.082,0.108,0.161,0.216,0.238,0.327c-1.532-1.054-3.201-1.886-4.882-2.675c-0.494-0.225-0.987-0.452-1.49-0.658
						c-0.918-0.397-1.847-0.765-2.786-1.103C429.729,332.286,430.137,332.382,430.544,332.482z M418.115,329.284
						c-0.539-0.159-1.031-0.346-1.532-0.6C417.089,328.897,417.6,329.096,418.115,329.284z M351.935,337.489
						c-0.471,1.486-0.429,1.453-1.103,2.652c-0.55,0.815-0.294,0.549-1.154,1.391c-1.111,1.012-1.731,1.321-3.48,2.153
						c-0.27,0.118-0.525,0.229-0.09,0.044c-1.234,0.521-2.324,1.026-3.542,1.094c-0.944,0.062-0.909,0.032-1.291-0.035
						c-0.12-0.013-0.349-0.088-0.486-0.133c-0.027-0.015-0.056-0.026-0.082-0.044c-0.021-0.014-0.041-0.029-0.062-0.044
						c-0.003-0.003-0.004-0.004-0.007-0.006c-0.601-0.637-0.757-1.17-0.719-3.094c0.348-6.47-0.52-10.11-4.04-15.59
						c-0.368-0.595-0.742-1.188-1.113-1.782c3.104,1.801,5.276,2.525,8.728,3.74c1.422,0.369,2.847,0.738,4.204,1.31
						c0.602,0.259,1.202,0.528,1.765,0.866c0.446,0.26,0.866,0.559,1.276,0.872c0.03,0.024,0.06,0.047,0.09,0.071
						c0.981,0.776,1.236,1.434,1.347,1.7c0.315,1.056,0.23,0.557,0.288,1.696C352.396,335.738,352.317,335.85,351.935,337.489z
						 M371.25,342.799c0.074,2.969-0.008,5.939-0.034,8.907c-0.072,4.642-0.276,9.283-0.7,13.907c-0.29,3.295-0.78,6.568-1.178,9.85
						c-0.815,6.069-0.904,13.282-4.008,17.298c-0.077,0.09-0.212,0.246-0.289,0.32c-0.028,0.027-0.059,0.051-0.089,0.077
						c-0.009,0.007-0.018,0.014-0.028,0.02c-0.03,0.022-0.073,0.047-0.121,0.074c0.115-2.241,1.102-5.497,1.627-8.276
						c0.96-5.636,1.839-11.293,2.352-16.989c0.35-4.274,0.734-8.553,0.758-12.844c-0.044-5.747-0.384-11.491-0.179-17.239
						c0.048-2.902,0.204-5.799,0.43-8.692c0.277,2.016,0.48,3.99,0.694,5.358C370.823,336.871,371.117,339.376,371.25,342.799z
						 M376.914,291.068c-1.309,2.631-2.426,5.355-3.307,8.159c-0.548,1.757-1.063,3.335-1.611,4.838
						c-0.04-0.397-0.082-0.794-0.132-1.191c-0.182-1.576-0.484-3.18-1.374-4.523c-0.421-0.766-0.143-0.447-0.858-1.346
						c-0.564-0.587-1.28-0.46-1.707-0.039c-0.395,0.197-0.667,0.644-0.524,1.127c0.835,2.584,0.875,3.954,1.082,6.739
						c0.132,2.162,0.26,4.33,0.235,6.497c-0.294,0.535-0.604,1.08-0.936,1.642c-1.028,1.65-2.303,3.324-2.986,4.174
						c-1.367,1.759-2.808,3.466-4.381,5.045c-2.271,2.197-4.413,4.525-6.823,6.576c-0.074,0.064-0.15,0.126-0.226,0.188
						c-0.23,0.137-0.461,0.301-0.643,0.497c-0.207-0.181-0.425-0.351-0.652-0.508c-2.202-1.7-4.938-2.496-7.601-3.157
						c-1.543-0.443-4.605-1.636-5.132-1.845c-1.39-0.628-2.766-1.296-4.061-2.105c-1.897-1.186-3-1.791-7.488-3.723
						c-2.857-1.23-5.615-2.723-8.111-4.587c-4.757-3.738-9.132-9.585-11.456-15.073c-2.455-5.779-2.768-10.357-2.828-16.501
						c0-0.055,0.001-0.11,0.001-0.165c0.148-0.901,0.295-1.857,0.459-3.006c0.267-1.779,0.356-3.295,0.01-4.593
						c0.23-1.422,0.597-3.309,0.932-4.942c0.764-3.68,1.692-7.335,2.948-10.88c1.431-3.776,2.388-6.348,3.988-9.613
						c1.896-3.817,3.702-6.282,6.3-9.15c1.785-1.968,3.618-3.909,5.69-5.579c1.223-1.01,1.886-1.429,3.523-2.538
						c1.378-0.934,7.629-3.01,9.507-3.666c2.545-0.889,5.635-1.462,7.324-1.581c4.307-0.211,6.864,0.027,10.835,0.959
						c2.219,0.548,4.413,1.219,6.521,2.107c0.146,0.065,0.293,0.131,0.439,0.196c0.846,0.367,1.66,0.8,2.464,1.249
						c1.304,0.75,2.597,1.523,3.81,2.415c1.356,1.094,2.704,2.206,3.945,3.429c1.47,1.658,1.841,2.092,2.938,3.603
						c4.963,7.322,6.186,15.31,6.401,24.195c0.153,3.629-0.147,7.055-0.609,9.78c-0.427,2.592-0.946,5.177-1.759,7.678
						C379.92,285.267,378.68,287.528,376.914,291.068z M389.107,300.81c0.072,0.055,0.143,0.111,0.21,0.171
						c-0.068-0.053-0.137-0.106-0.205-0.158c0.748,0.598,1.484,1.209,2.22,1.821c1.478,1.242,2.933,2.518,4.277,3.905
						c2.17,2.377,4.19,4.888,6.216,7.388c2.247,2.838,4.458,5.704,6.703,8.543c0.092,0.116,0.191,0.238,0.291,0.364
						c-2.345-1.552-4.512-3.095-6.38-4.814c-1.77-1.638-3.482-3.335-5.204-5.023c-1.522-1.488-3.024-3-4.366-4.655
						c-1.673-2.051-3.861-4.751-5.321-6.611C388.139,301.553,388.687,301.257,389.107,300.81z M387.01,296.98
						c0.362,0.917,0.285,0.833,0.272,2.082c-0.014,0.013-0.029,0.025-0.043,0.038c-0.032,0.021-0.065,0.042-0.098,0.061
						c-1.042,0.234-0.582,0.21-1.324,0.174c-0.451-0.079-0.9-0.177-1.331-0.333c-0.298-0.143-0.589-0.298-0.876-0.461
						c-0.332-0.201-0.651-0.422-0.963-0.653c-1.071-0.838-2.039-1.797-2.933-2.821c-0.441-0.561-0.299-0.273-0.858-1.237
						c-0.099-0.189-0.18-0.4-0.322-0.559c0.351-0.772,0.748-1.598,1.251-2.612c0.083-0.165,0.165-0.331,0.248-0.497
						c0.319,0.264,0.683,0.473,1.039,0.684c0.636,0.391,0.802,0.532,0.943,0.633C383.265,292.504,386.114,295.03,387.01,296.98z
						 M457.821,322.353c-1.571-1.239-3.114-2.514-4.701-3.733c-1.425-1.087-4.96-3.592-5.49-4.022
						c-2.326-1.781-4.555-3.696-6.976-5.35c-2.988-2.024-6.208-3.662-9.359-5.409c-4.142-2.392-8.318-4.731-12.403-7.218
						c-0.866-0.562-1.721-1.139-2.572-1.724c0.88,0.435,1.76,0.871,2.64,1.305c2.983,1.56,5.915,3.218,8.907,4.761
						c2.336,1.194,4.771,2.201,7.022,3.559c2.517,1.55,5.027,3.118,7.473,4.78c1.666,1.145,3.242,2.412,4.898,3.572
						c2.352,1.65,4.783,3.186,7.112,4.869c1.19,0.858,1.59,1.172,2.847,2.384c0.94,0.933,0.965,0.993,1.664,2.176
						c0.307,0.53,0.428,0.884,0.471,1.138C458.834,323.157,458.222,322.663,457.821,322.353z"/>
				</g>
				<path d="M330.983,322.03c-0.004-0.001-0.007-0.003-0.011-0.004c-0.024-0.009-0.048-0.015-0.072-0.025
					C330.935,322.016,330.966,322.028,330.983,322.03z"/>
			</g>
			<path d="M330.83,321.969c0.023,0.011,0.047,0.022,0.07,0.031c-0.018-0.008-0.036-0.016-0.054-0.025
				C330.841,321.974,330.835,321.972,330.83,321.969z"/>
			<path d="M282.171,288.993c-0.05,0.006-0.1,0.013-0.149,0.02C282.223,288.987,282.236,288.985,282.171,288.993z"/>
		</g>
		<g>
			<path d="M137.373,411.314c0.037,0.007,0.074,0.012,0.11,0.009C137.446,411.32,137.409,411.316,137.373,411.314z"/>
			<path d="M242.519,417.16c-1.581-0.181-1.637,0.054-2.154-0.266c-0.059-0.056-0.144-0.138-0.213-0.216
				c-0.33-0.448-0.632-0.921-0.857-1.431c-0.052-0.136-0.143-0.377-0.178-0.497c-0.265-0.763-0.495-1.538-0.678-2.325
				c-0.34-1.847-0.396-2.225-0.579-4.133c-0.248-2.545,0.045-5.131-0.412-7.654c-0.256-1.231-0.901-2.328-1.6-3.356
				c-0.303-0.508-0.316-1.078-0.375-2.566c-0.067-4.023-0.283-6.164-2.637-9.573c-0.889-1.377-1.88-2.686-2.749-4.075
				c-0.2-0.287-0.361-0.636-0.552-0.953c0.524-1.305,0.72-2.686,0.39-4.438c-0.382-2.975-1.851-5.651-3.443-8.143
				c-1.42-2.302-2.957-4.529-4.528-6.729c-5.11-7.231-10.5-14.458-17.461-20.021c-1.726-1.367-4.188-3.248-5.118-3.953
				c-1.188-0.884-2.327-1.87-3.624-2.593c0.792-1.365,1.562-2.743,2.2-4.188c1.385-3.222,2.707-6.479,3.783-9.818
				c0.029-0.082,0.061-0.163,0.092-0.244l-0.017,0.041c0.038-0.097,0.073-0.192,0.09-0.244c0.067-0.171,0.091-0.336,0.079-0.491
				c1.03-1.352,1.984-2.763,2.786-4.263c1.007-1.943,1.884-3.962,2.57-6.041c0.545-1.529,1.007-4.112,1.073-4.725
				c0.208-1.043,0.266-1.667,0.081-2.019c-0.001-0.004-0.003-0.007-0.004-0.01c1.448-0.761,2.833-1.64,4.125-2.649
				c0.991-0.758,1.695-1.808,2.445-2.789c1.768-2.307,3.355-4.746,4.914-7.197c0.471-0.769,0.901-1.561,1.34-2.348
				c0.26-0.487,0.558-0.963,0.734-1.487c0.534-0.797-0.04-2.002-1.074-1.987c-0.759,0-1.22,0.635-1.426,1.297
				c-0.062,0.132-0.124,0.263-0.187,0.393c-0.87,1.76-1.969,3.395-3.098,4.997c-1.018,1.549-2.038,3.095-3.173,4.562
				c-0.961,1.23-0.841,1.289-2.08,2.46c-2.772,2.196-7.378,4.536-12.153,5.263c-1.021,0.207-4.646,0.525-6.861,0.466
				c-2.566-0.029-5.127-0.231-7.69-0.332c-1.881-0.102-2.583-0.177-4.051-0.423c-0.566-0.097-1.133-0.194-1.699-0.29
				c-1.993-3.538-3.834-7.175-5.001-10.184c-1.211-2.862-2.048-5.932-3.774-8.543c-0.743-1.153-1.609-2.265-2.804-2.978
				c-0.997-0.552-2.867-1.152-3.446,0.204c-0.023,0.047-0.037,0.097-0.053,0.145c-1.511,2.056-2.611,4.361-3.324,6.808
				c-0.951,2.82-1.37,5.769-1.688,8.719c-1.09-0.521-2.715-1.346-4.104-2.025c-1.35-0.691-2.621-1.525-3.976-2.206
				c-1.779-0.93-3.628-1.717-5.411-2.639c-2.189-1.119-4.33-2.329-6.505-3.473c-2.933-1.51-5.839-3.075-8.633-4.832
				c-3.591-2.176-6.983-4.654-10.386-7.108c-3.413-2.401-5.486-3.752-8.306-6.663c-1.12-1.207-1.477-1.603-2.422-3.393
				c-0.039-0.087-0.077-0.175-0.115-0.262c-0.026-0.075-0.093-0.253-0.144-0.384c-0.118-0.376-0.223-0.757-0.294-1.144
				c-0.086-1.317,0.272-2.24,0.683-4.09c0.573-2.325,1.395-4.578,2.234-6.817c1.141-2.967,2.696-6.216,4.748-9.554
				c4.056-6.628,8.182-11.661,13.761-17.29c1.991-1.991,4.076-4.032,5.805-5.218c0.57-0.402,1.155-0.786,1.769-1.119
				c0.421-0.276,0.979-0.394,1.295-0.799c0.707-0.832-0.351-2.142-1.355-1.544c-2.625,1.255-4.9,3.115-6.997,5.11
				c-2.021,1.902-3.985,3.866-5.85,5.922c-5.153,5.694-9.801,11.919-13.258,18.795c-2.157,4.523-4.014,9.236-5.041,14.152
				c-0.291,1.091-0.327,2.143-0.17,3.151c-1.484,1.645-2.994,3.402-3.884,4.654c-2.219,3.278-4.317,6.643-6.188,10.132
				c-1.881,3.547-3.751,7.117-5.179,10.876c-1.263,3.469-2.134,7.067-2.969,10.659c-0.674,2.879-1.326,5.767-1.726,8.7
				c-0.295,2.31-0.499,4.698-0.058,7.001c0.04,0.195,0.088,0.387,0.139,0.577c-1.008,2.606-1.607,3.806-2.636,6.429
				c-1.066,2.749-2.036,5.535-2.997,8.322c-1.703,4.79-3.723,11.696-4.234,17.799c-0.327,4.001-0.876,8.109,0.079,12.063
				c0.207,0.746,0.488,1.454,0.827,2.126c-0.335,2.863-0.448,5.752-0.286,8.631c0.202,3.946,1.159,10.334,1.592,13.033
				c0.949,6.689,2.078,13.624,5.765,19.422c0.845,1.337,1.896,2.532,3.112,3.531c-0.27,1.436-0.54,2.874-0.657,4.331
				c-0.086,1.316,0.026,2.636,0.186,3.943c0.17,1.672,0.611,3.297,1.124,4.894c0.555,1.734,1.227,3.435,2.064,5.053
				c1.24,2.348,2.926,4.427,4.687,6.402c2.641,2.923,5.894,5.182,9.015,7.552c0.23,0.161,1.378,1.089,2.315,1.869
				c0.539,0.458,1.055,0.945,1.647,1.335c0.163,0.086,0.347,0.152,0.322,0.136c0.068,0.029,0.136,0.056,0.206,0.078
				c1.344,0.354,2.407-0.831,3.191-1.762l-0.072,0.094c0.297-0.33,0.604-0.652,0.927-0.956c0.082-0.076,0.168-0.146,0.254-0.217
				c0.197-0.141,0.406-0.263,0.627-0.363c-0.098,0.041-0.196,0.083-0.294,0.124c1.128-0.492,0.682-0.328,1.748-0.815
				c5.798-2.436,11.118-5.875,16.06-9.741c1.051-0.845,3.935-2.918,5.55-4.767c1.043-1.135,1.911-2.415,2.724-3.722
				c0.788-1.348,1.52-2.756,1.908-4.275c0.366-1.448,0.547-3.718,0.636-5.011c0.47-0.14,0.928-0.322,1.376-0.523
				c3.401-1.661,5.926-4.645,8.288-7.522c3.596-4.389,6.538-9.256,9.541-14.057c1.824-2.899,2.96-5.163,4.825-8.57
				c0.504-0.901,1.087-1.754,1.632-2.63c0.027-0.046,0.056-0.091,0.086-0.136c1.969,0.329,3.984-0.354,5.538-1.754
				c1.304-1.173,2.261-2.679,3.148-4.179c0.929-1.595,1.817-3.216,2.605-4.886c0.94-2.064,1.247-2.745,2.039-4.805
				c0.138-0.372,0.243-0.754,0.365-1.131c0.575,0.123,1.177,0.133,1.805-0.017c0.373-0.061,0.702-0.202,1-0.392
				c0.837,2.743,2.062,5.355,3.438,7.874c2.367,4.355,5.246,8.427,8.336,12.295c2.106,2.42,4.568,4.493,7.139,6.4
				c2.46,1.84,5.027,3.545,7.807,4.866c1.722,0.808,3.483,1.542,5.277,2.177c1.457,0.503,3.013,1.086,4.567,0.716
				c2.785-0.866,3.716-2.874,4.632-5.215c0.066,1.291,0.152,2.58,0.292,3.865c0.26,2.636,0.672,3.854,3.072,5.171
				c0.104,0.041,0.793,0.662,1.402,2.058c0.068,0.171,0.136,0.341,0.201,0.513c0.467,1.215,0.776,2.481,1.124,3.733
				c0.309,1.105,0.674,2.196,0.911,3.32c0.057,0.219,0.19,0.983,0.233,1.203c0.222,1.909,0.138,3.841,0.334,5.754
				c0.217,2.221,0.686,4.433,1.422,6.541c0.401,0.956,0.791,2.026,1.661,2.652c2.579,1.348,5.408-1.725,6.812-3.62
				c0.403-0.606,0.972-1.246,1.234-1.914C243.661,418.127,243.246,417.335,242.519,417.16z M194.786,331.063
				c-0.063,0.12-0.128,0.239-0.193,0.359c-0.271-1.516-0.731-2.993-1.306-4.428c0.07-0.026,0.139-0.058,0.208-0.099
				c1.445-0.795,2.869-1.646,4.119-2.73c0.066-0.057,0.13-0.117,0.195-0.175C196.692,326.741,196.089,328.548,194.786,331.063z
				 M182.507,305.016c1.472,0.172,2.954,0.242,4.431,0.363c2.868,0.232,5.746,0.478,8.625,0.306
				c2.154-0.138,4.315-0.366,6.407-0.913c1.433-0.392,2.845-0.874,4.215-1.454c-0.008,0.081-0.016,0.175-0.025,0.286
				c-0.016,0.156-0.017,0.19-0.012,0.164c-0.003,0.025-0.007,0.05-0.009,0.075c-0.011,0.094-0.024,0.187-0.036,0.281
				c-0.288,1.844-0.868,3.631-1.566,5.359c-0.288,0.731-1.385,3.222-2.334,4.765c-1.302,2.194-2.289,3.504-3.511,4.966
				c-1.059,1.304-2.168,2.585-3.485,3.635c-0.076,0.056-0.185,0.136-0.271,0.197c-0.611,0.445-1.253,0.845-1.906,1.227
				c-0.237,0.163-0.52,0.279-0.765,0.437c-0.218-0.446-0.443-0.887-0.675-1.323c-1.639-3.138-3.591-6.092-5.482-9.081
				c-1.957-3.108-4.022-6.149-5.917-9.296c-0.075-0.126-0.15-0.254-0.225-0.381C180.811,304.779,181.656,304.917,182.507,305.016z
				 M88.077,310.064c0.117-1.69,0.178-1.811,0.449-3.622c0.696-3.997,1.622-7.956,2.611-11.89c1.144-4.588,2.405-7.781,4.372-11.72
				c1.501-3.064,3.069-6.097,4.818-9.026c1.22-2.101,3.483-5.63,4.413-6.77c0.536-0.687,1.095-1.354,1.66-2.017
				c1.16,2.712,3.556,5.045,5.749,6.917c2.159,1.812,4.518,3.361,6.805,5.003c3.292,2.41,6.628,4.764,10.125,6.869
				c4.147,2.577,8.559,4.683,12.826,7.049c2.026,1.107,4.145,2.027,6.233,3.008c1.524,0.73,4.331,2.124,4.923,2.343
				c1.772,0.728,3.117,1.27,3.777,1.582c0.262,0.122,0.526,0.237,0.781,0.374c0.203,0.1,0.404,0.205,0.605,0.31
				c-0.691,6.795-0.087,13.65,0.98,20.381c0.787,6.002,2.608,11.807,4.882,17.402c-1.193,0.446-2.383,0.9-3.595,1.293
				c-0.975,0.297-1.975,0.508-2.984,0.643c-3.165,0.385-6.322,0.87-9.505,1.083c-2.079,0.142-4.165,0.01-6.244-0.067
				c-7.363-0.41-13.287-1.093-20.614-3.342c-5.09-1.515-8.322-3-13.1-5.199c-2.027-0.939-4.053-1.892-5.977-3.031
				c-2.944-1.753-6.046-3.942-7.974-5.494c-1.653-1.262-3.672-3.489-4.242-4.36c-1.122-1.629-1.313-2.014-1.741-3.936
				C87.981,312.589,88.008,311.321,88.077,310.064z M78.1,355.893c-0.034-3.391,0.431-7.922,0.721-10.201
				c1.133-7.765,3.867-15.166,6.438-22.545c0.59-1.615,1.254-3.2,1.895-4.794c0.002-0.006,0.005-0.012,0.007-0.018
				c0.43,0.711,0.924,1.386,1.454,2.028c2.482,3.101,5.818,5.359,9.044,7.617c3.455,2.369,7.232,4.184,11.05,5.882
				c5.399,2.552,11.033,4.575,16.85,5.935c3.752,0.886,7.588,1.376,11.425,1.717c3.264,0.276,6.538,0.487,9.815,0.468
				c2.258-0.078,4.504-0.348,6.743-0.643c2.046-0.275,4.111-0.447,6.139-0.843c1.492-0.321,3.145-1.072,3.721-1.316
				c0.709-0.322,1.18-0.516,1.613-0.692c1.275,3.057,2.572,6.106,3.993,9.099c0.509,1.084,1.075,2.139,1.69,3.164
				c-0.236,0.219-0.39,0.525-0.381,0.862c-0.004,0.119-0.005,0.238-0.013,0.357c-0.003,0.048-0.009,0.095-0.014,0.142
				c-0.004,0.022-0.008,0.043-0.014,0.064c-0.031,0.078-0.036,0.096-0.031,0.085c-0.01,0.025-0.021,0.049-0.032,0.073
				c-1.313,3.323-1.443,3.808-3.488,7.627c-1.037,1.9-2.009,3.848-3.286,5.604c-0.063,0.107-0.292,0.409-0.442,0.604
				c-1.6,1.903-3.564,3.474-5.509,5.013c-1.419,1.025-2.898,1.967-4.415,2.838c-1.394,0.779-2.842,1.452-4.302,2.096
				c-1.834,0.77-3.704,1.459-5.616,2.01c-1.923,0.493-3.882,0.839-5.849,1.102c0.132-0.019-0.6,0.077-0.843,0.107
				c-1.399,0.171-2.801,0.338-4.209,0.404c-2.067,0.083-4.138,0.029-6.206-0.004c-5.705-0.072-9.829-0.874-15.567-2.367
				c-5.243-1.331-10.446-3.079-14.55-4.998c-4.345-1.923-8.802-3.751-12.613-6.642c-0.785-0.598-3.27-2.512-4.263-4.876
				c-0.212-0.514-0.419-1.032-0.553-1.572C78.209,358.055,78.214,357.639,78.1,355.893z M80.182,381.047
				c-0.91-5.286-1.696-10.276-1.435-16.136c0.905,1.056,1.965,1.993,3.11,2.814c-0.084-0.065-0.168-0.13-0.252-0.195
				c1.64,1.303,3.427,2.402,5.266,3.402c2.081,1.105,4.239,2.055,6.388,3.018c2.617,1.169,5.237,2.34,7.931,3.323
				c2.801,0.979,5.652,1.819,8.52,2.581c2.685,0.681,5.37,1.387,8.11,1.815c3.395,0.55,6.833,0.732,10.269,0.74
				c3.581,0.131,7.145-0.211,10.684-0.736c4.045-0.516,7.941-1.741,11.652-3.414c2.116-0.91,4.156-1.992,6.096-3.229
				c-0.035,0.093-0.07,0.185-0.106,0.277c-0.4,0.933-0.909,1.813-1.408,2.696c-2.695,4.773-5.493,9.496-8.761,13.904
				c-1.689,2.246-4.315,5.304-6.936,7.987c-1.597,1.638-3.321,3.143-5.113,4.564c-0.156,0.136-0.871,0.687-0.975,0.769
				c-2.687,2.037-5.616,3.779-7.984,4.551c-3.604,1.173-5.699,1.262-9.553,1.177c-4.971-0.084-8.102-0.612-13.005-1.398
				c-5.782-0.984-11.334-2.244-14.651-5.416C82.959,398.93,81.572,389.511,80.182,381.047z M138.524,413.9
				c-0.463,2.4-0.841,3.006-2.02,5.055c-1.661,2.894-3.79,4.882-6.911,7.228c-3.064,2.455-7.278,5.444-11.558,7.779
				c-2.337,1.337-5.655,2.528-6.978,3.659c-0.966,0.847-0.856,0.872-1.486,1.604c-0.45,0.479-0.679,0.714-0.901,0.877
				c-2.015-2.165-6.262-5.187-7.45-6.128c-5.861-4.591-9.456-9.294-11.329-15.726c-0.849-2.881-1.068-4.311-1.058-7.112
				c0.075-1.257,0.188-1.966,0.348-2.876c0.038,0.022,0.075,0.046,0.113,0.067c3.63,1.957,7.69,2.925,11.727,3.622
				c4.785,0.794,9.587,1.593,14.449,1.65c3.623,0.147,7.307-0.115,10.738-1.362c1.34-0.479,2.619-1.079,3.853-1.762
				c0.177,0.136,0.4,0.222,0.669,0.217c2.143,0.19,4.279,0.441,6.425,0.603c0.073,0.006,0.145,0.011,0.218,0.017
				c-0.042-0.008-0.082-0.017-0.118-0.025c0.527,0.062,1.059,0.089,1.591,0.084c-0.022,0.702,0.004,0.373-0.061,0.968
				C138.736,412.699,138.776,412.546,138.524,413.9z M163.945,378.171c-1.807,2.851-3.375,5.885-4.74,7.988
				c-3.545,5.567-7.208,11.623-10.862,15.919c-1.317,1.607-2.721,3.152-4.314,4.491c-0.768,0.617-1.484,1.192-2.952,1.868
				c-2.314,0.943-5.033,0.453-8.023,0.17c2.017-1.399,3.919-2.979,5.766-4.579c3.557-3.236,6.719-6.893,9.65-10.698
				c2.788-3.767,5.256-7.751,7.582-11.816c0.846-1.503,1.744-2.984,2.472-4.549c0.533-1.172,0.907-2.407,1.301-3.629
				c0.148-0.458,0.252-0.687,0.332-0.858c1.383,1.608,2.811,3.242,4.671,4.298C164.543,377.244,164.252,377.712,163.945,378.171z
				 M178.454,360.763c-0.345,1.061-0.367,1.092-0.628,1.67c-1.498,3.143-3.147,6.223-5.063,9.132
				c-1.454,2.248-2.752,3.107-4.038,3.471c-1.538,0.156-2.379-0.21-4.191-1.545c-0.311-0.249-0.611-0.51-0.893-0.791
				c-0.42-0.401-0.801-0.84-1.193-1.267c-0.169-0.157-0.314-0.351-0.471-0.531c0.867-0.76,1.718-1.538,2.503-2.382
				c1.238-1.482,2.299-3.103,3.22-4.799c1.459-2.743,2.989-5.479,3.925-8.456c0.21-0.603,0.438-1.201,0.683-1.791
				c0.025-0.056,0.05-0.112,0.074-0.169c1.156,1.602,2.44,3.112,3.838,4.513c0.744,0.717,1.57,1.505,2.477,2.112
				C178.598,360.198,178.529,360.492,178.454,360.763z M182.217,358.316c-0.123,0.04-0.249,0.073-0.376,0.097
				c-0.178,0.013-0.358,0.013-0.536,0c-0.069-0.014-0.136-0.035-0.203-0.057c-1.49-0.739-2.182-1.514-3.673-3.056
				c-2.204-2.352-3.51-4.162-5.273-7.342c-1.306-2.39-3.447-7.462-4.01-8.762c-1.698-3.941-3.271-7.939-4.491-12.056
				c-0.879-2.815-1.434-5.714-1.89-8.625c-0.492-3.116-0.742-4.716-0.971-7.463c-0.243-2.686-0.4-5.379-0.383-8.076
				c0.119-3.462,0.525-7.962,0.916-10.368c0.25-1.729,0.696-3.422,1.223-5.087c0.643-1.984,0.819-2.685,1.861-4.326
				c0.148-0.235,0.3-0.468,0.453-0.7c0.03,0.001,0.059,0.002,0.089,0.003c0.164,0.031,0.322,0.08,0.478,0.139
				c0.01,0.005,0.02,0.009,0.03,0.014c0.157,0.08,0.307,0.173,0.451,0.275c0.108,0.089,0.215,0.177,0.319,0.271
				c1.133,1.016,2.392,3.372,2.914,4.776c1.117,2.743,2.105,5.542,3.343,8.234c2.467,5.22,5.339,10.245,8.532,15.055
				c2.256,3.539,4.563,7.048,6.728,10.645c2.021,3.588,3.262,5.685,4.207,9.682c0.505,2.135,0.194,5.418-0.734,7.265
				c-1.419,2.676-2.887,5.335-3.916,8.194c-1.282,3.587-1.882,6.322-3.001,8.387C183.42,356.922,183.114,357.414,182.217,358.316z
				 M226.09,380.943c-1.288,1.807-2.242,3.805-3.068,5.858c-0.945,2.19-1.323,3.715-2.269,4.65c-0.192,0.229-0.35,0.288-1.166,0.711
				c-0.072,0.025-0.144,0.048-0.217,0.066c-0.225,0.015-0.452,0.012-0.677-0.003c-2.253-0.498-6.185-2.08-9.113-3.681
				c-2.339-1.291-4.514-2.859-6.642-4.47c-2.059-1.591-3.999-3.339-5.717-5.296c-1.772-2.128-3.408-4.501-5.353-7.409
				c-2.037-3.114-3.85-6.387-5.329-9.803c-0.065-0.183-0.43-1.13-0.499-1.371c-0.202-0.617-0.372-1.245-0.541-1.872
				c1.501-1.999,2.296-4.4,3.063-6.752c0.971-3.049,1.47-4.562,2.698-7.109c0.776-1.668,1.802-3.212,2.514-4.909
				c0.412-0.948,0.69-1.948,0.859-2.967c0.581,0.341,1.124,0.75,1.671,1.14c1.472,1.039,2.169,1.712,3.977,3.056
				c0.526,0.446,2.858,2.154,4.196,3.32c2.157,1.964,4.26,3.998,6.202,6.176c3.312,3.815,5.803,7.284,8.974,11.812
				c1.68,2.366,3.305,4.773,4.831,7.242c1.597,2.612,2.331,3.861,2.85,6.649C227.598,377.571,227.594,378.813,226.09,380.943z
				 M236.775,422.169c-0.858-1.442-1.625-5.122-1.81-7.064c-0.228-2.343-0.045-4.725-0.538-7.039
				c-0.318-1.671-0.897-3.274-1.324-4.918c-0.402-1.494-0.872-2.981-1.574-4.364c-0.62-1.091-0.796-1.239-1.219-1.746
				c-0.525-0.533-1.186-0.887-1.808-1.288c-0.032-0.022-0.057-0.04-0.08-0.055c-0.079-0.067-0.156-0.137-0.226-0.214
				c-0.009-0.01-0.013-0.014-0.02-0.023c-0.057-0.085-0.111-0.172-0.156-0.263c-0.464-1.11-0.736-4.211-0.927-6.896
				c-0.037-0.547-0.082-1.093-0.118-1.639c-0.06-0.511,0.017-1.106-0.341-1.514c0.271-0.543,0.584-1.105,0.957-1.671
				c0.194-0.284,0.379-0.56,0.557-0.831c0.621,0.876,1.498,2.098,2.184,3.127c2.113,3.208,2.536,4.066,2.717,7.04
				c0.088,1.501,0.043,3.02,0.335,4.501c0.412,1.557,1.024,1.564,1.684,3.044c0.009,0.023,0.019,0.051,0.033,0.087
				c0.339,1.105,0.256,0.881,0.357,1.714c0.1,1.45,0.018,2.905,0.079,4.356c0.069,2.179,0.34,4.349,0.748,6.49
				c0.372,1.487,0.78,3.003,1.589,4.319c0.378,0.567,0.752,1.171,1.345,1.535c0.365,0.19,0.747,0.38,1.155,0.45
				c0.04,0.007,0.079,0.012,0.119,0.017C239.321,420.754,237.567,422.223,236.775,422.169z"/>
		</g>
		<path d="M215.439,216.019c-0.627-0.109-1.255-0.219-1.884-0.315c-2.1-0.324-4.199-0.656-6.301-0.969
			c-7.006-0.995-12.99-1.952-19.853-2.896c-4.821-0.633-9.611-1.32-14.881-1.713c-2.026-0.175-4.054-0.288-6.084-0.367
			c-0.153-0.066-0.428-0.181-0.508-0.208c-0.629-0.086-1.211-0.18-2.196-0.37c-1.971-0.347-3.979-0.394-5.972-0.513
			c-3.317-0.303-6.653-0.28-9.969-0.591c-2.243-0.153-4.897-0.817-7.649-1.236c-2.739-0.381-7.117-0.926-9.023-1.18
			c-3.099-0.428-6.198-0.871-9.318-1.129c-1.3-0.11-2.6-0.217-3.9-0.326c-0.496-0.039-0.993-0.077-1.489-0.114
			c-0.103-0.004-0.2,0.018-0.289,0.065c-0.732,0.285-0.53,1.443,0.289,1.436c2.99,0.27,5.984,0.51,8.961,0.895
			c2.763,0.36,6.804,0.986,10.237,1.446c1.984,0.272,3.167,0.377,4.774,0.639c2.077,0.345,4.145,0.753,6.242,0.96
			c0.247,0.022,0.495,0.04,0.742,0.058c-1.142,0.031-2.283,0.065-3.425,0.099c-2.969,0.071-5.913,0.466-8.869,0.717
			c-3.127,0.21-6.256,0.506-9.392,0.493c-3.129-0.093-5.223-0.404-8.133-0.895c-4.384-0.804-8.819-1.226-13.268-1.44
			c-3.192-0.184-6.37-0.562-9.563-0.733c-4.966-0.345-9.941-0.339-14.916-0.37c-0.731-0.012-1.462-0.026-2.193-0.039
			c-0.182-0.001-0.356,0.073-0.484,0.201c-0.174,0.172-0.236,0.43-0.176,0.666c0.076,0.289,0.361,0.506,0.66,0.503
			c3.5,0.103,7.001,0.057,10.5,0.162c4.739,0.166,9.465,0.561,14.186,0.988c3.345,0.262,6.703,0.394,10.035,0.816
			c1.828,0.223,5.793,0.983,8.387,1.336c2.785,0.391,5.609,0.551,8.417,0.337c2.583-0.179,5.17-0.314,7.746-0.585
			c3.479-0.413,6.973-0.621,10.475-0.673c3.436-0.12,6.871-0.162,10.307-0.041c4.75,0.035,9.503,0.076,14.241,0.462
			c5.443,0.402,9.827,1.019,15.124,1.716c6.506,0.87,13.175,1.911,20.342,2.912c1.952,0.298,5.025,0.723,6.247,0.887
			c0.196,0.029,0.393,0.054,0.59,0.08c-0.061-0.008-0.122-0.016-0.183-0.025c0.396,0.053,0.791,0.109,1.187,0.161
			c-0.041-0.005-0.242-0.033-0.127-0.016c0.255,0.071,0.554-0.018,0.704-0.24C216.083,216.726,215.885,216.124,215.439,216.019z"/>
		<path d="M356.102,277.721c-0.536-2.06-1.462-4.022-2.674-5.769c-1.43-1.943-3.217-3.593-4.659-5.529
			c-1.253-1.641-1.845-2.254-2.876-3.761c-0.694-1.148-1.297-2.411-2.167-3.421c-0.709-0.619-1.904-0.014-1.877,0.918
			c0.032,0.648,0.513,1.166,0.845,1.693c0.327,0.471,0.585,0.983,0.864,1.482c-2.882,1.092-5.083,3.371-6.68,5.971
			c-2.562,4.071-3.808,9.042-2.937,13.815c0.619,5.325,4.14,9.785,8.086,11.909c2.539,1.118,5.662,1.395,8.271,0.366
			C356.479,292.768,357.691,283.524,356.102,277.721z M349.548,284.762c0.057-0.067,0.118-0.129,0.182-0.189
			c0.078-0.052,0.189-0.126,0.279-0.179c0.708-0.333,0.434-0.31,1.292-0.299c0.017,0.005,0.03,0.008,0.051,0.014
			c0.019,0.008,0.025,0.01,0.035,0.014c0.028,0.012,0.054,0.023,0.08,0.033c0.878,0.432,0.825,0.594,0.924,0.652
			c0.219,0.293,0.361,0.661,0.615,0.925c-0.202,0.403-0.124,0.871-0.161,1.313c-0.026,0.151-0.071,0.298-0.125,0.442
			c-0.021,0.041-0.048,0.094-0.085,0.161c-0.044,0.077-0.093,0.154-0.133,0.214c-0.118,0.145-0.24,0.287-0.379,0.413
			c-1.234,1.091-2.537,0.725-3.171-1.292c-0.007-0.437-0.032-0.008,0.044-0.667C349.238,285.213,349.135,285.462,349.548,284.762z"
			/>
	</g>
</g>
</svg>
